<?xml version="1.0" standalone="no"?>
<!DOCTYPE svg PUBLIC "-//W3C//DTD SVG 20010904//EN"
 "http://www.w3.org/TR/2001/REC-SVG-20010904/DTD/svg10.dtd">
<svg version="1.0" xmlns="http://www.w3.org/2000/svg"
 width="929.000000pt" height="929.000000pt" viewBox="0 0 929.000000 929.000000"
 preserveAspectRatio="xMidYMid meet">
<metadata>
Created by potrace 1.14, written by Peter Selinger 2001-2017
</metadata>
<g transform="translate(0.000000,929.000000) scale(0.100000,-0.100000)"
fill="#000000" stroke="none">
<path d="M4690 7524 c-522 -46 -882 -148 -1329 -377 -416 -212 -774 -465
-1080 -762 -627 -609 -919 -1339 -1021 -2555 -38 -463 -27 -892 31 -1110 22
-83 67 -165 106 -194 60 -45 155 -27 193 37 27 43 25 86 -5 157 -39 93 -49
221 -42 565 20 972 162 1683 444 2215 68 129 204 332 257 383 120 116 333 215
565 262 100 21 262 16 356 -9 234 -63 428 -242 565 -521 81 -166 118 -268 170
-470 67 -261 92 -440 94 -668 l1 -199 -92 -33 c-246 -88 -540 -298 -601 -429
-54 -114 -35 -224 53 -313 94 -93 203 -127 450 -139 357 -16 861 37 1240 132
278 70 420 131 512 221 75 73 108 146 108 243 0 251 -245 383 -772 416 l-112
7 4 41 c3 22 10 88 16 146 19 186 114 603 195 860 171 542 355 849 632 1057
71 53 212 127 281 147 108 32 294 17 489 -39 180 -52 267 -108 443 -284 103
-104 155 -165 218 -260 165 -248 330 -627 416 -953 102 -391 147 -975 124
-1608 -6 -179 -11 -338 -11 -353 3 -66 71 -127 141 -127 74 0 152 71 166 150
3 19 10 173 14 343 16 609 -20 1142 -105 1537 -100 467 -352 1025 -602 1335
-150 185 -373 405 -577 570 -368 296 -858 493 -1395 560 -122 15 -451 27 -540
19z m405 -3478 c121 -20 189 -39 234 -66 33 -21 33 -21 15 -42 -66 -72 -457
-182 -815 -227 -312 -40 -778 -50 -893 -20 l-38 10 23 26 c42 44 210 150 329
207 164 78 283 115 404 125 158 14 623 6 741 -13z"/>
<path d="M5924 5271 c-118 -30 -142 -52 -179 -161 -48 -140 -25 -236 70 -295
97 -60 240 -29 320 70 77 95 98 192 61 280 -45 106 -134 141 -272 106z"/>
<path d="M2840 5111 c-48 -10 -76 -26 -142 -83 -75 -65 -93 -110 -85 -218 6
-89 27 -134 80 -174 89 -67 195 -52 283 38 142 146 118 391 -44 436 -40 11
-41 11 -92 1z"/>
</g>
</svg>
